<mxfile host="Electron" modified="2023-07-31T21:06:37.486Z" agent="Mozilla/5.0 (Windows NT 10.0; Win64; x64) AppleWebKit/537.36 (KHTML, like Gecko) draw.io/21.2.8 Chrome/112.0.5615.165 Electron/24.2.0 Safari/537.36" etag="v1T2MOqxfX4y0ZMuVeCf" version="21.2.8" type="device">
  <diagram id="_IM5rHcu1BQfe1hOf6VR" name="Clases">
    <mxGraphModel dx="2181" dy="1975" grid="1" gridSize="10" guides="1" tooltips="1" connect="1" arrows="1" fold="1" page="1" pageScale="1" pageWidth="827" pageHeight="1169" math="0" shadow="0">
      <root>
        <mxCell id="H-_01Mu2gKqrJwGbBytt-0" />
        <mxCell id="H-_01Mu2gKqrJwGbBytt-1" parent="H-_01Mu2gKqrJwGbBytt-0" />
        <mxCell id="08A2mlQFigO-94BA-L4f-0" style="edgeStyle=none;rounded=0;orthogonalLoop=1;jettySize=auto;html=1;dashed=1;" parent="H-_01Mu2gKqrJwGbBytt-1" source="08A2mlQFigO-94BA-L4f-1" target="08A2mlQFigO-94BA-L4f-13" edge="1">
          <mxGeometry relative="1" as="geometry" />
        </mxCell>
        <mxCell id="08A2mlQFigO-94BA-L4f-1" value="BEElemento" style="swimlane;fontStyle=1;align=center;verticalAlign=top;childLayout=stackLayout;horizontal=1;startSize=26;horizontalStack=0;resizeParent=1;resizeParentMax=0;resizeLast=0;collapsible=1;marginBottom=0;" parent="H-_01Mu2gKqrJwGbBytt-1" vertex="1">
          <mxGeometry x="-170" y="310" width="380" height="298" as="geometry" />
        </mxCell>
        <mxCell id="08A2mlQFigO-94BA-L4f-3" value="+ Descripcion: string" style="text;strokeColor=none;fillColor=none;align=left;verticalAlign=top;spacingLeft=4;spacingRight=4;overflow=hidden;rotatable=0;points=[[0,0.5],[1,0.5]];portConstraint=eastwest;" parent="08A2mlQFigO-94BA-L4f-1" vertex="1">
          <mxGeometry y="26" width="380" height="26" as="geometry" />
        </mxCell>
        <mxCell id="08A2mlQFigO-94BA-L4f-4" value="+ Cantidad: Double" style="text;strokeColor=none;fillColor=none;align=left;verticalAlign=top;spacingLeft=4;spacingRight=4;overflow=hidden;rotatable=0;points=[[0,0.5],[1,0.5]];portConstraint=eastwest;" parent="08A2mlQFigO-94BA-L4f-1" vertex="1">
          <mxGeometry y="52" width="380" height="26" as="geometry" />
        </mxCell>
        <mxCell id="08A2mlQFigO-94BA-L4f-5" value="+ Articulo: BEArticuloÂ " style="text;strokeColor=none;fillColor=none;align=left;verticalAlign=top;spacingLeft=4;spacingRight=4;overflow=hidden;rotatable=0;points=[[0,0.5],[1,0.5]];portConstraint=eastwest;" parent="08A2mlQFigO-94BA-L4f-1" vertex="1">
          <mxGeometry y="78" width="380" height="26" as="geometry" />
        </mxCell>
        <mxCell id="08A2mlQFigO-94BA-L4f-6" value="+ Estado: BEEstado _Elemento" style="text;strokeColor=none;fillColor=none;align=left;verticalAlign=top;spacingLeft=4;spacingRight=4;overflow=hidden;rotatable=0;points=[[0,0.5],[1,0.5]];portConstraint=eastwest;" parent="08A2mlQFigO-94BA-L4f-1" vertex="1">
          <mxGeometry y="104" width="380" height="26" as="geometry" />
        </mxCell>
        <mxCell id="08A2mlQFigO-94BA-L4f-7" value="" style="line;strokeWidth=1;fillColor=none;align=left;verticalAlign=middle;spacingTop=-1;spacingLeft=3;spacingRight=3;rotatable=0;labelPosition=right;points=[];portConstraint=eastwest;" parent="08A2mlQFigO-94BA-L4f-1" vertex="1">
          <mxGeometry y="130" width="380" height="8" as="geometry" />
        </mxCell>
        <mxCell id="08A2mlQFigO-94BA-L4f-8" value="+ BusquedaElementos (string,string,int,BEUnidad): List&lt;BEElemento&gt;" style="text;strokeColor=none;fillColor=none;align=left;verticalAlign=top;spacingLeft=4;spacingRight=4;overflow=hidden;rotatable=0;points=[[0,0.5],[1,0.5]];portConstraint=eastwest;" parent="08A2mlQFigO-94BA-L4f-1" vertex="1">
          <mxGeometry y="138" width="380" height="32" as="geometry" />
        </mxCell>
        <mxCell id="08A2mlQFigO-94BA-L4f-9" value="+ GuardarElementoHallazgo (BEHallazgo,BEElemento): bool" style="text;strokeColor=none;fillColor=none;align=left;verticalAlign=top;spacingLeft=4;spacingRight=4;overflow=hidden;rotatable=0;points=[[0,0.5],[1,0.5]];portConstraint=eastwest;" parent="08A2mlQFigO-94BA-L4f-1" vertex="1">
          <mxGeometry y="170" width="380" height="32" as="geometry" />
        </mxCell>
        <mxCell id="08A2mlQFigO-94BA-L4f-10" value="+ GuardarElementoEntrega (BEEntrega,BEElemento): bool" style="text;strokeColor=none;fillColor=none;align=left;verticalAlign=top;spacingLeft=4;spacingRight=4;overflow=hidden;rotatable=0;points=[[0,0.5],[1,0.5]];portConstraint=eastwest;" parent="08A2mlQFigO-94BA-L4f-1" vertex="1">
          <mxGeometry y="202" width="380" height="32" as="geometry" />
        </mxCell>
        <mxCell id="08A2mlQFigO-94BA-L4f-11" value="+ EliminarElementoEntrega (BEElemento): bool" style="text;strokeColor=none;fillColor=none;align=left;verticalAlign=top;spacingLeft=4;spacingRight=4;overflow=hidden;rotatable=0;points=[[0,0.5],[1,0.5]];portConstraint=eastwest;" parent="08A2mlQFigO-94BA-L4f-1" vertex="1">
          <mxGeometry y="234" width="380" height="32" as="geometry" />
        </mxCell>
        <mxCell id="08A2mlQFigO-94BA-L4f-12" value="+ ObtenerElementosReporte (): DataTable" style="text;strokeColor=none;fillColor=none;align=left;verticalAlign=top;spacingLeft=4;spacingRight=4;overflow=hidden;rotatable=0;points=[[0,0.5],[1,0.5]];portConstraint=eastwest;" parent="08A2mlQFigO-94BA-L4f-1" vertex="1">
          <mxGeometry y="266" width="380" height="32" as="geometry" />
        </mxCell>
        <mxCell id="08A2mlQFigO-94BA-L4f-13" value="&lt;p style=&quot;margin: 0px ; margin-top: 4px ; text-align: center&quot;&gt;&lt;i&gt;&amp;lt;&amp;lt;Interface&amp;gt;&amp;gt;&lt;/i&gt;&lt;br&gt;&lt;b&gt;IGestor&amp;lt;IEntidad&amp;gt;&lt;/b&gt;&lt;/p&gt;&lt;hr size=&quot;1&quot;&gt;&lt;p style=&quot;margin: 0px ; margin-left: 4px&quot;&gt;&lt;/p&gt;&lt;p style=&quot;margin: 0px ; margin-left: 4px&quot;&gt;+ Agregar(IEntidad): bool&lt;/p&gt;&lt;p style=&quot;margin: 0px ; margin-left: 4px&quot;&gt;+ Actualizar (IEntidad): bool&lt;br&gt;+ Eliminar(IEntidad): bool&lt;/p&gt;&lt;p style=&quot;margin: 0px ; margin-left: 4px&quot;&gt;&lt;span&gt;+ ListarTodo (): List&amp;lt;IEntidad&amp;gt;&lt;/span&gt;&lt;br&gt;&lt;/p&gt;&lt;p style=&quot;margin: 0px ; margin-left: 4px&quot;&gt;&lt;br&gt;&lt;/p&gt;" style="verticalAlign=top;align=left;overflow=fill;fontSize=12;fontFamily=Helvetica;html=1;fillColor=#cce5ff;strokeColor=#36393d;" parent="H-_01Mu2gKqrJwGbBytt-1" vertex="1">
          <mxGeometry x="340" y="-530" width="190" height="110" as="geometry" />
        </mxCell>
        <mxCell id="08A2mlQFigO-94BA-L4f-14" style="edgeStyle=none;rounded=0;orthogonalLoop=1;jettySize=auto;html=1;dashed=1;" parent="H-_01Mu2gKqrJwGbBytt-1" source="08A2mlQFigO-94BA-L4f-15" target="08A2mlQFigO-94BA-L4f-13" edge="1">
          <mxGeometry relative="1" as="geometry">
            <Array as="points">
              <mxPoint x="50" y="-270" />
            </Array>
          </mxGeometry>
        </mxCell>
        <mxCell id="08A2mlQFigO-94BA-L4f-15" value="Articulo" style="swimlane;fontStyle=1;align=center;verticalAlign=top;childLayout=stackLayout;horizontal=1;startSize=26;horizontalStack=0;resizeParent=1;resizeParentMax=0;resizeLast=0;collapsible=1;marginBottom=0;" parent="H-_01Mu2gKqrJwGbBytt-1" vertex="1">
          <mxGeometry x="-420" y="-328" width="180" height="112" as="geometry" />
        </mxCell>
        <mxCell id="08A2mlQFigO-94BA-L4f-17" value="+ NombreArticulo: string" style="text;strokeColor=none;fillColor=none;align=left;verticalAlign=top;spacingLeft=4;spacingRight=4;overflow=hidden;rotatable=0;points=[[0,0.5],[1,0.5]];portConstraint=eastwest;" parent="08A2mlQFigO-94BA-L4f-15" vertex="1">
          <mxGeometry y="26" width="180" height="26" as="geometry" />
        </mxCell>
        <mxCell id="08A2mlQFigO-94BA-L4f-18" value="+ Categoria: BECategoria" style="text;strokeColor=none;fillColor=none;align=left;verticalAlign=top;spacingLeft=4;spacingRight=4;overflow=hidden;rotatable=0;points=[[0,0.5],[1,0.5]];portConstraint=eastwest;" parent="08A2mlQFigO-94BA-L4f-15" vertex="1">
          <mxGeometry y="52" width="180" height="26" as="geometry" />
        </mxCell>
        <mxCell id="08A2mlQFigO-94BA-L4f-19" value="" style="line;strokeWidth=1;fillColor=none;align=left;verticalAlign=middle;spacingTop=-1;spacingLeft=3;spacingRight=3;rotatable=0;labelPosition=right;points=[];portConstraint=eastwest;" parent="08A2mlQFigO-94BA-L4f-15" vertex="1">
          <mxGeometry y="78" width="180" height="8" as="geometry" />
        </mxCell>
        <mxCell id="08A2mlQFigO-94BA-L4f-20" value="+ ToString(): string" style="text;strokeColor=none;fillColor=none;align=left;verticalAlign=top;spacingLeft=4;spacingRight=4;overflow=hidden;rotatable=0;points=[[0,0.5],[1,0.5]];portConstraint=eastwest;" parent="08A2mlQFigO-94BA-L4f-15" vertex="1">
          <mxGeometry y="86" width="180" height="26" as="geometry" />
        </mxCell>
        <mxCell id="08A2mlQFigO-94BA-L4f-21" style="edgeStyle=none;rounded=0;orthogonalLoop=1;jettySize=auto;html=1;dashed=1;" parent="H-_01Mu2gKqrJwGbBytt-1" source="08A2mlQFigO-94BA-L4f-22" target="08A2mlQFigO-94BA-L4f-13" edge="1">
          <mxGeometry relative="1" as="geometry">
            <Array as="points">
              <mxPoint x="570" y="-290" />
            </Array>
          </mxGeometry>
        </mxCell>
        <mxCell id="08A2mlQFigO-94BA-L4f-22" value="BEPadreHallazgo" style="swimlane;fontStyle=1;align=center;verticalAlign=top;childLayout=stackLayout;horizontal=1;startSize=26;horizontalStack=0;resizeParent=1;resizeParentMax=0;resizeLast=0;collapsible=1;marginBottom=0;" parent="H-_01Mu2gKqrJwGbBytt-1" vertex="1">
          <mxGeometry x="500" y="-49" width="230" height="242" as="geometry" />
        </mxCell>
        <mxCell id="08A2mlQFigO-94BA-L4f-23" value="+ NroActa: string" style="text;strokeColor=none;fillColor=none;align=left;verticalAlign=top;spacingLeft=4;spacingRight=4;overflow=hidden;rotatable=0;points=[[0,0.5],[1,0.5]];portConstraint=eastwest;" parent="08A2mlQFigO-94BA-L4f-22" vertex="1">
          <mxGeometry y="26" width="230" height="26" as="geometry" />
        </mxCell>
        <mxCell id="08A2mlQFigO-94BA-L4f-24" value="+ FechaActa: DateTimeÂ " style="text;strokeColor=none;fillColor=none;align=left;verticalAlign=top;spacingLeft=4;spacingRight=4;overflow=hidden;rotatable=0;points=[[0,0.5],[1,0.5]];portConstraint=eastwest;" parent="08A2mlQFigO-94BA-L4f-22" vertex="1">
          <mxGeometry y="52" width="230" height="26" as="geometry" />
        </mxCell>
        <mxCell id="08A2mlQFigO-94BA-L4f-25" value="+ Unidad: BEunidad" style="text;strokeColor=none;fillColor=none;align=left;verticalAlign=top;spacingLeft=4;spacingRight=4;overflow=hidden;rotatable=0;points=[[0,0.5],[1,0.5]];portConstraint=eastwest;" parent="08A2mlQFigO-94BA-L4f-22" vertex="1">
          <mxGeometry y="78" width="230" height="26" as="geometry" />
        </mxCell>
        <mxCell id="08A2mlQFigO-94BA-L4f-26" value="+ Anio: int" style="text;strokeColor=none;fillColor=none;align=left;verticalAlign=top;spacingLeft=4;spacingRight=4;overflow=hidden;rotatable=0;points=[[0,0.5],[1,0.5]];portConstraint=eastwest;" parent="08A2mlQFigO-94BA-L4f-22" vertex="1">
          <mxGeometry y="104" width="230" height="26" as="geometry" />
        </mxCell>
        <mxCell id="08A2mlQFigO-94BA-L4f-27" value="+ ListaPersonas :Â Â List&lt;BEPersonas&gt;" style="text;strokeColor=none;fillColor=none;align=left;verticalAlign=top;spacingLeft=4;spacingRight=4;overflow=hidden;rotatable=0;points=[[0,0.5],[1,0.5]];portConstraint=eastwest;" parent="08A2mlQFigO-94BA-L4f-22" vertex="1">
          <mxGeometry y="130" width="230" height="26" as="geometry" />
        </mxCell>
        <mxCell id="08A2mlQFigO-94BA-L4f-28" value="+ ListaElementos: List&lt;BEElementos&gt;" style="text;strokeColor=none;fillColor=none;align=left;verticalAlign=top;spacingLeft=4;spacingRight=4;overflow=hidden;rotatable=0;points=[[0,0.5],[1,0.5]];portConstraint=eastwest;" parent="08A2mlQFigO-94BA-L4f-22" vertex="1">
          <mxGeometry y="156" width="230" height="26" as="geometry" />
        </mxCell>
        <mxCell id="dQs4wgEXyiurEB1gUf8k-47" value="+ Observacion: string" style="text;strokeColor=none;fillColor=none;align=left;verticalAlign=top;spacingLeft=4;spacingRight=4;overflow=hidden;rotatable=0;points=[[0,0.5],[1,0.5]];portConstraint=eastwest;" parent="08A2mlQFigO-94BA-L4f-22" vertex="1">
          <mxGeometry y="182" width="230" height="26" as="geometry" />
        </mxCell>
        <mxCell id="08A2mlQFigO-94BA-L4f-29" value="" style="line;strokeWidth=1;fillColor=none;align=left;verticalAlign=middle;spacingTop=-1;spacingLeft=3;spacingRight=3;rotatable=0;labelPosition=right;points=[];portConstraint=eastwest;" parent="08A2mlQFigO-94BA-L4f-22" vertex="1">
          <mxGeometry y="208" width="230" height="8" as="geometry" />
        </mxCell>
        <mxCell id="08A2mlQFigO-94BA-L4f-30" value="+ ObtenerNroActa (BEunidad ,int): string" style="text;strokeColor=none;fillColor=none;align=left;verticalAlign=top;spacingLeft=4;spacingRight=4;overflow=hidden;rotatable=0;points=[[0,0.5],[1,0.5]];portConstraint=eastwest;fontStyle=2" parent="08A2mlQFigO-94BA-L4f-22" vertex="1">
          <mxGeometry y="216" width="230" height="26" as="geometry" />
        </mxCell>
        <mxCell id="08A2mlQFigO-94BA-L4f-31" value="BEHallazgo" style="swimlane;fontStyle=1;align=center;verticalAlign=top;childLayout=stackLayout;horizontal=1;startSize=26;horizontalStack=0;resizeParent=1;resizeParentMax=0;resizeLast=0;collapsible=1;marginBottom=0;" parent="H-_01Mu2gKqrJwGbBytt-1" vertex="1">
          <mxGeometry x="340" y="270" width="320" height="164" as="geometry" />
        </mxCell>
        <mxCell id="08A2mlQFigO-94BA-L4f-32" value="+ LugarHallazgo: string" style="text;strokeColor=none;fillColor=none;align=left;verticalAlign=top;spacingLeft=4;spacingRight=4;overflow=hidden;rotatable=0;points=[[0,0.5],[1,0.5]];portConstraint=eastwest;" parent="08A2mlQFigO-94BA-L4f-31" vertex="1">
          <mxGeometry y="26" width="320" height="26" as="geometry" />
        </mxCell>
        <mxCell id="08A2mlQFigO-94BA-L4f-34" value="+ FechaHallazgo: DateTime" style="text;strokeColor=none;fillColor=none;align=left;verticalAlign=top;spacingLeft=4;spacingRight=4;overflow=hidden;rotatable=0;points=[[0,0.5],[1,0.5]];portConstraint=eastwest;" parent="08A2mlQFigO-94BA-L4f-31" vertex="1">
          <mxGeometry y="52" width="320" height="26" as="geometry" />
        </mxCell>
        <mxCell id="08A2mlQFigO-94BA-L4f-35" value="" style="line;strokeWidth=1;fillColor=none;align=left;verticalAlign=middle;spacingTop=-1;spacingLeft=3;spacingRight=3;rotatable=0;labelPosition=right;points=[];portConstraint=eastwest;" parent="08A2mlQFigO-94BA-L4f-31" vertex="1">
          <mxGeometry y="78" width="320" height="8" as="geometry" />
        </mxCell>
        <mxCell id="08A2mlQFigO-94BA-L4f-37" value="+ ObtenerElementoHallazgo (BEElemento): BEHallazgo" style="text;strokeColor=none;fillColor=none;align=left;verticalAlign=top;spacingLeft=4;spacingRight=4;overflow=hidden;rotatable=0;points=[[0,0.5],[1,0.5]];portConstraint=eastwest;" parent="08A2mlQFigO-94BA-L4f-31" vertex="1">
          <mxGeometry y="86" width="320" height="26" as="geometry" />
        </mxCell>
        <mxCell id="dQs4wgEXyiurEB1gUf8k-53" value="+ ObtenerNroActa (BEunidad ,int): string" style="text;strokeColor=none;fillColor=none;align=left;verticalAlign=top;spacingLeft=4;spacingRight=4;overflow=hidden;rotatable=0;points=[[0,0.5],[1,0.5]];portConstraint=eastwest;fontStyle=0" parent="08A2mlQFigO-94BA-L4f-31" vertex="1">
          <mxGeometry y="112" width="320" height="26" as="geometry" />
        </mxCell>
        <mxCell id="08A2mlQFigO-94BA-L4f-38" value="+ ToString(): string" style="text;strokeColor=none;fillColor=none;align=left;verticalAlign=top;spacingLeft=4;spacingRight=4;overflow=hidden;rotatable=0;points=[[0,0.5],[1,0.5]];portConstraint=eastwest;" parent="08A2mlQFigO-94BA-L4f-31" vertex="1">
          <mxGeometry y="138" width="320" height="26" as="geometry" />
        </mxCell>
        <mxCell id="08A2mlQFigO-94BA-L4f-39" value="BEEntrega" style="swimlane;fontStyle=1;align=center;verticalAlign=top;childLayout=stackLayout;horizontal=1;startSize=26;horizontalStack=0;resizeParent=1;resizeParentMax=0;resizeLast=0;collapsible=1;marginBottom=0;" parent="H-_01Mu2gKqrJwGbBytt-1" vertex="1">
          <mxGeometry x="690" y="270" width="340" height="138" as="geometry" />
        </mxCell>
        <mxCell id="08A2mlQFigO-94BA-L4f-42" value="+ FechaEntrega: DateTime" style="text;strokeColor=none;fillColor=none;align=left;verticalAlign=top;spacingLeft=4;spacingRight=4;overflow=hidden;rotatable=0;points=[[0,0.5],[1,0.5]];portConstraint=eastwest;" parent="08A2mlQFigO-94BA-L4f-39" vertex="1">
          <mxGeometry y="26" width="340" height="26" as="geometry" />
        </mxCell>
        <mxCell id="08A2mlQFigO-94BA-L4f-43" value="" style="line;strokeWidth=1;fillColor=none;align=left;verticalAlign=middle;spacingTop=-1;spacingLeft=3;spacingRight=3;rotatable=0;labelPosition=right;points=[];portConstraint=eastwest;" parent="08A2mlQFigO-94BA-L4f-39" vertex="1">
          <mxGeometry y="52" width="340" height="8" as="geometry" />
        </mxCell>
        <mxCell id="dQs4wgEXyiurEB1gUf8k-48" value="+ ObtenerElementoEntrega (BEElemento): BEEntrega" style="text;strokeColor=none;fillColor=none;align=left;verticalAlign=top;spacingLeft=4;spacingRight=4;overflow=hidden;rotatable=0;points=[[0,0.5],[1,0.5]];portConstraint=eastwest;" parent="08A2mlQFigO-94BA-L4f-39" vertex="1">
          <mxGeometry y="60" width="340" height="26" as="geometry" />
        </mxCell>
        <mxCell id="dQs4wgEXyiurEB1gUf8k-54" value="+ ObtenerNroActa (BEunidad ,int): string" style="text;strokeColor=none;fillColor=none;align=left;verticalAlign=top;spacingLeft=4;spacingRight=4;overflow=hidden;rotatable=0;points=[[0,0.5],[1,0.5]];portConstraint=eastwest;fontStyle=0" parent="08A2mlQFigO-94BA-L4f-39" vertex="1">
          <mxGeometry y="86" width="340" height="26" as="geometry" />
        </mxCell>
        <mxCell id="08A2mlQFigO-94BA-L4f-44" value="+ ToString(): string" style="text;strokeColor=none;fillColor=none;align=left;verticalAlign=top;spacingLeft=4;spacingRight=4;overflow=hidden;rotatable=0;points=[[0,0.5],[1,0.5]];portConstraint=eastwest;" parent="08A2mlQFigO-94BA-L4f-39" vertex="1">
          <mxGeometry y="112" width="340" height="26" as="geometry" />
        </mxCell>
        <mxCell id="08A2mlQFigO-94BA-L4f-46" style="edgeStyle=orthogonalEdgeStyle;rounded=0;orthogonalLoop=1;jettySize=auto;html=1;dashed=1;" parent="H-_01Mu2gKqrJwGbBytt-1" source="08A2mlQFigO-94BA-L4f-47" target="08A2mlQFigO-94BA-L4f-13" edge="1">
          <mxGeometry relative="1" as="geometry">
            <Array as="points">
              <mxPoint x="1020" y="690" />
              <mxPoint x="1020" y="-390" />
              <mxPoint x="500" y="-390" />
            </Array>
          </mxGeometry>
        </mxCell>
        <mxCell id="08A2mlQFigO-94BA-L4f-47" value="BEEstado_Elemento" style="swimlane;fontStyle=1;align=center;verticalAlign=top;childLayout=stackLayout;horizontal=1;startSize=26;horizontalStack=0;resizeParent=1;resizeParentMax=0;resizeLast=0;collapsible=1;marginBottom=0;" parent="H-_01Mu2gKqrJwGbBytt-1" vertex="1">
          <mxGeometry x="550" y="630" width="160" height="86" as="geometry" />
        </mxCell>
        <mxCell id="08A2mlQFigO-94BA-L4f-49" value="+ Nombre: string" style="text;strokeColor=none;fillColor=none;align=left;verticalAlign=top;spacingLeft=4;spacingRight=4;overflow=hidden;rotatable=0;points=[[0,0.5],[1,0.5]];portConstraint=eastwest;" parent="08A2mlQFigO-94BA-L4f-47" vertex="1">
          <mxGeometry y="26" width="160" height="26" as="geometry" />
        </mxCell>
        <mxCell id="08A2mlQFigO-94BA-L4f-50" value="" style="line;strokeWidth=1;fillColor=none;align=left;verticalAlign=middle;spacingTop=-1;spacingLeft=3;spacingRight=3;rotatable=0;labelPosition=right;points=[];portConstraint=eastwest;" parent="08A2mlQFigO-94BA-L4f-47" vertex="1">
          <mxGeometry y="52" width="160" height="8" as="geometry" />
        </mxCell>
        <mxCell id="08A2mlQFigO-94BA-L4f-51" value="+ ToString(): string" style="text;strokeColor=none;fillColor=none;align=left;verticalAlign=top;spacingLeft=4;spacingRight=4;overflow=hidden;rotatable=0;points=[[0,0.5],[1,0.5]];portConstraint=eastwest;" parent="08A2mlQFigO-94BA-L4f-47" vertex="1">
          <mxGeometry y="60" width="160" height="26" as="geometry" />
        </mxCell>
        <mxCell id="08A2mlQFigO-94BA-L4f-52" style="edgeStyle=orthogonalEdgeStyle;rounded=0;orthogonalLoop=1;jettySize=auto;html=1;dashed=1;" parent="H-_01Mu2gKqrJwGbBytt-1" source="08A2mlQFigO-94BA-L4f-54" target="08A2mlQFigO-94BA-L4f-13" edge="1">
          <mxGeometry relative="1" as="geometry">
            <Array as="points">
              <mxPoint x="1180" y="-160" />
              <mxPoint x="930" y="-160" />
              <mxPoint x="930" y="-340" />
              <mxPoint x="490" y="-340" />
            </Array>
          </mxGeometry>
        </mxCell>
        <mxCell id="08A2mlQFigO-94BA-L4f-53" style="edgeStyle=orthogonalEdgeStyle;rounded=0;orthogonalLoop=1;jettySize=auto;html=1;endArrow=none;endFill=0;entryX=0.353;entryY=0;entryDx=0;entryDy=0;entryPerimeter=0;" parent="H-_01Mu2gKqrJwGbBytt-1" source="08A2mlQFigO-94BA-L4f-54" target="08A2mlQFigO-94BA-L4f-67" edge="1">
          <mxGeometry relative="1" as="geometry">
            <Array as="points">
              <mxPoint x="1200" y="200" />
              <mxPoint x="1270" y="200" />
            </Array>
          </mxGeometry>
        </mxCell>
        <mxCell id="08A2mlQFigO-94BA-L4f-54" value="BEEstado_Persona" style="swimlane;fontStyle=1;align=center;verticalAlign=top;childLayout=stackLayout;horizontal=1;startSize=26;horizontalStack=0;resizeParent=1;resizeParentMax=0;resizeLast=0;collapsible=1;marginBottom=0;" parent="H-_01Mu2gKqrJwGbBytt-1" vertex="1">
          <mxGeometry x="1090" y="-100" width="160" height="86" as="geometry" />
        </mxCell>
        <mxCell id="08A2mlQFigO-94BA-L4f-56" value="+ Estado: string" style="text;strokeColor=none;fillColor=none;align=left;verticalAlign=top;spacingLeft=4;spacingRight=4;overflow=hidden;rotatable=0;points=[[0,0.5],[1,0.5]];portConstraint=eastwest;" parent="08A2mlQFigO-94BA-L4f-54" vertex="1">
          <mxGeometry y="26" width="160" height="26" as="geometry" />
        </mxCell>
        <mxCell id="08A2mlQFigO-94BA-L4f-57" value="" style="line;strokeWidth=1;fillColor=none;align=left;verticalAlign=middle;spacingTop=-1;spacingLeft=3;spacingRight=3;rotatable=0;labelPosition=right;points=[];portConstraint=eastwest;" parent="08A2mlQFigO-94BA-L4f-54" vertex="1">
          <mxGeometry y="52" width="160" height="8" as="geometry" />
        </mxCell>
        <mxCell id="08A2mlQFigO-94BA-L4f-58" value="+ ToString(): string" style="text;strokeColor=none;fillColor=none;align=left;verticalAlign=top;spacingLeft=4;spacingRight=4;overflow=hidden;rotatable=0;points=[[0,0.5],[1,0.5]];portConstraint=eastwest;" parent="08A2mlQFigO-94BA-L4f-54" vertex="1">
          <mxGeometry y="60" width="160" height="26" as="geometry" />
        </mxCell>
        <mxCell id="SxVt8YSaokdxKLl47naF-9" style="rounded=0;orthogonalLoop=1;jettySize=auto;html=1;endArrow=none;endFill=0;" parent="H-_01Mu2gKqrJwGbBytt-1" source="08A2mlQFigO-94BA-L4f-59" target="WYtthIlqHay8PLY1lMA2-57" edge="1">
          <mxGeometry relative="1" as="geometry">
            <mxPoint x="1470" y="754" as="targetPoint" />
          </mxGeometry>
        </mxCell>
        <mxCell id="08A2mlQFigO-94BA-L4f-59" value="BEInstructor" style="swimlane;fontStyle=1;align=center;verticalAlign=top;childLayout=stackLayout;horizontal=1;startSize=26;horizontalStack=0;resizeParent=1;resizeParentMax=0;resizeLast=0;collapsible=1;marginBottom=0;" parent="H-_01Mu2gKqrJwGbBytt-1" vertex="1">
          <mxGeometry x="1130" y="670" width="160" height="224" as="geometry" />
        </mxCell>
        <mxCell id="08A2mlQFigO-94BA-L4f-60" value="+ Legajo: int" style="text;strokeColor=none;fillColor=none;align=left;verticalAlign=top;spacingLeft=4;spacingRight=4;overflow=hidden;rotatable=0;points=[[0,0.5],[1,0.5]];portConstraint=eastwest;" parent="08A2mlQFigO-94BA-L4f-59" vertex="1">
          <mxGeometry y="26" width="160" height="30" as="geometry" />
        </mxCell>
        <mxCell id="jXJ1h0B2mP8WK_TSwUKt-8" value="+ Jerarquia: BEJerarquia" style="text;strokeColor=none;fillColor=none;align=left;verticalAlign=top;spacingLeft=4;spacingRight=4;overflow=hidden;rotatable=0;points=[[0,0.5],[1,0.5]];portConstraint=eastwest;" parent="08A2mlQFigO-94BA-L4f-59" vertex="1">
          <mxGeometry y="56" width="160" height="30" as="geometry" />
        </mxCell>
        <mxCell id="08A2mlQFigO-94BA-L4f-61" value="+ password: string" style="text;strokeColor=none;fillColor=none;align=left;verticalAlign=top;spacingLeft=4;spacingRight=4;overflow=hidden;rotatable=0;points=[[0,0.5],[1,0.5]];portConstraint=eastwest;" parent="08A2mlQFigO-94BA-L4f-59" vertex="1">
          <mxGeometry y="86" width="160" height="26" as="geometry" />
        </mxCell>
        <mxCell id="08A2mlQFigO-94BA-L4f-62" value="+ Mail: string" style="text;strokeColor=none;fillColor=none;align=left;verticalAlign=top;spacingLeft=4;spacingRight=4;overflow=hidden;rotatable=0;points=[[0,0.5],[1,0.5]];portConstraint=eastwest;" parent="08A2mlQFigO-94BA-L4f-59" vertex="1">
          <mxGeometry y="112" width="160" height="26" as="geometry" />
        </mxCell>
        <mxCell id="SxVt8YSaokdxKLl47naF-6" value="+ Rol: BERol" style="text;strokeColor=none;fillColor=none;align=left;verticalAlign=top;spacingLeft=4;spacingRight=4;overflow=hidden;rotatable=0;points=[[0,0.5],[1,0.5]];portConstraint=eastwest;" parent="08A2mlQFigO-94BA-L4f-59" vertex="1">
          <mxGeometry y="138" width="160" height="26" as="geometry" />
        </mxCell>
        <mxCell id="WYtthIlqHay8PLY1lMA2-74" value="+ Destino:Â  BEDestino" style="text;strokeColor=none;fillColor=none;align=left;verticalAlign=top;spacingLeft=4;spacingRight=4;overflow=hidden;rotatable=0;points=[[0,0.5],[1,0.5]];portConstraint=eastwest;" parent="08A2mlQFigO-94BA-L4f-59" vertex="1">
          <mxGeometry y="164" width="160" height="26" as="geometry" />
        </mxCell>
        <mxCell id="08A2mlQFigO-94BA-L4f-63" value="" style="line;strokeWidth=1;fillColor=none;align=left;verticalAlign=middle;spacingTop=-1;spacingLeft=3;spacingRight=3;rotatable=0;labelPosition=right;points=[];portConstraint=eastwest;" parent="08A2mlQFigO-94BA-L4f-59" vertex="1">
          <mxGeometry y="190" width="160" height="8" as="geometry" />
        </mxCell>
        <mxCell id="08A2mlQFigO-94BA-L4f-64" value="+ Actualizar(): bool" style="text;strokeColor=none;fillColor=none;align=left;verticalAlign=top;spacingLeft=4;spacingRight=4;overflow=hidden;rotatable=0;points=[[0,0.5],[1,0.5]];portConstraint=eastwest;" parent="08A2mlQFigO-94BA-L4f-59" vertex="1">
          <mxGeometry y="198" width="160" height="26" as="geometry" />
        </mxCell>
        <mxCell id="08A2mlQFigO-94BA-L4f-66" style="edgeStyle=orthogonalEdgeStyle;rounded=0;orthogonalLoop=1;jettySize=auto;html=1;dashed=1;" parent="H-_01Mu2gKqrJwGbBytt-1" source="08A2mlQFigO-94BA-L4f-67" target="08A2mlQFigO-94BA-L4f-13" edge="1">
          <mxGeometry relative="1" as="geometry">
            <Array as="points">
              <mxPoint x="1320" y="-190" />
              <mxPoint x="435" y="-190" />
            </Array>
          </mxGeometry>
        </mxCell>
        <mxCell id="08A2mlQFigO-94BA-L4f-67" value="BEPersona" style="swimlane;fontStyle=1;align=center;verticalAlign=top;childLayout=stackLayout;horizontal=1;startSize=26;horizontalStack=0;resizeParent=1;resizeParentMax=0;resizeLast=0;collapsible=1;marginBottom=0;" parent="H-_01Mu2gKqrJwGbBytt-1" vertex="1">
          <mxGeometry x="1150" y="230" width="340" height="344" as="geometry" />
        </mxCell>
        <mxCell id="08A2mlQFigO-94BA-L4f-69" value="+ NombreCompleto: string" style="text;strokeColor=none;fillColor=none;align=left;verticalAlign=top;spacingLeft=4;spacingRight=4;overflow=hidden;rotatable=0;points=[[0,0.5],[1,0.5]];portConstraint=eastwest;" parent="08A2mlQFigO-94BA-L4f-67" vertex="1">
          <mxGeometry y="26" width="340" height="26" as="geometry" />
        </mxCell>
        <mxCell id="08A2mlQFigO-94BA-L4f-70" value="+ DNI: int" style="text;strokeColor=none;fillColor=none;align=left;verticalAlign=top;spacingLeft=4;spacingRight=4;overflow=hidden;rotatable=0;points=[[0,0.5],[1,0.5]];portConstraint=eastwest;" parent="08A2mlQFigO-94BA-L4f-67" vertex="1">
          <mxGeometry y="52" width="340" height="26" as="geometry" />
        </mxCell>
        <mxCell id="08A2mlQFigO-94BA-L4f-71" value="+ Domicilio: string" style="text;strokeColor=none;fillColor=none;align=left;verticalAlign=top;spacingLeft=4;spacingRight=4;overflow=hidden;rotatable=0;points=[[0,0.5],[1,0.5]];portConstraint=eastwest;" parent="08A2mlQFigO-94BA-L4f-67" vertex="1">
          <mxGeometry y="78" width="340" height="26" as="geometry" />
        </mxCell>
        <mxCell id="08A2mlQFigO-94BA-L4f-72" value="+ Ocupacion: string" style="text;strokeColor=none;fillColor=none;align=left;verticalAlign=top;spacingLeft=4;spacingRight=4;overflow=hidden;rotatable=0;points=[[0,0.5],[1,0.5]];portConstraint=eastwest;" parent="08A2mlQFigO-94BA-L4f-67" vertex="1">
          <mxGeometry y="104" width="340" height="26" as="geometry" />
        </mxCell>
        <mxCell id="08A2mlQFigO-94BA-L4f-73" value="+ Telefono: string" style="text;strokeColor=none;fillColor=none;align=left;verticalAlign=top;spacingLeft=4;spacingRight=4;overflow=hidden;rotatable=0;points=[[0,0.5],[1,0.5]];portConstraint=eastwest;" parent="08A2mlQFigO-94BA-L4f-67" vertex="1">
          <mxGeometry y="130" width="340" height="26" as="geometry" />
        </mxCell>
        <mxCell id="08A2mlQFigO-94BA-L4f-74" value="+ EstadoPersona: BEEstadoPersona" style="text;strokeColor=none;fillColor=none;align=left;verticalAlign=top;spacingLeft=4;spacingRight=4;overflow=hidden;rotatable=0;points=[[0,0.5],[1,0.5]];portConstraint=eastwest;" parent="08A2mlQFigO-94BA-L4f-67" vertex="1">
          <mxGeometry y="156" width="340" height="26" as="geometry" />
        </mxCell>
        <mxCell id="08A2mlQFigO-94BA-L4f-75" value="" style="line;strokeWidth=1;fillColor=none;align=left;verticalAlign=middle;spacingTop=-1;spacingLeft=3;spacingRight=3;rotatable=0;labelPosition=right;points=[];portConstraint=eastwest;" parent="08A2mlQFigO-94BA-L4f-67" vertex="1">
          <mxGeometry y="182" width="340" height="8" as="geometry" />
        </mxCell>
        <mxCell id="08A2mlQFigO-94BA-L4f-76" value="+ ToString(): string" style="text;strokeColor=none;fillColor=none;align=left;verticalAlign=top;spacingLeft=4;spacingRight=4;overflow=hidden;rotatable=0;points=[[0,0.5],[1,0.5]];portConstraint=eastwest;" parent="08A2mlQFigO-94BA-L4f-67" vertex="1">
          <mxGeometry y="190" width="340" height="26" as="geometry" />
        </mxCell>
        <mxCell id="08A2mlQFigO-94BA-L4f-77" value="+ AgregarPersonaHallazgo(BEHallazgo ,BEPersona): bool" style="text;strokeColor=none;fillColor=none;align=left;verticalAlign=top;spacingLeft=4;spacingRight=4;overflow=hidden;rotatable=0;points=[[0,0.5],[1,0.5]];portConstraint=eastwest;" parent="08A2mlQFigO-94BA-L4f-67" vertex="1">
          <mxGeometry y="216" width="340" height="32" as="geometry" />
        </mxCell>
        <mxCell id="08A2mlQFigO-94BA-L4f-78" value="+ AgregarPersonaEntrega(BEEntrega,BEPersona): bool" style="text;strokeColor=none;fillColor=none;align=left;verticalAlign=top;spacingLeft=4;spacingRight=4;overflow=hidden;rotatable=0;points=[[0,0.5],[1,0.5]];portConstraint=eastwest;" parent="08A2mlQFigO-94BA-L4f-67" vertex="1">
          <mxGeometry y="248" width="340" height="32" as="geometry" />
        </mxCell>
        <mxCell id="08A2mlQFigO-94BA-L4f-79" value="+ EliminarPersonaHallazgo(BEHallazgo ,BEPersona): bool" style="text;strokeColor=none;fillColor=none;align=left;verticalAlign=top;spacingLeft=4;spacingRight=4;overflow=hidden;rotatable=0;points=[[0,0.5],[1,0.5]];portConstraint=eastwest;" parent="08A2mlQFigO-94BA-L4f-67" vertex="1">
          <mxGeometry y="280" width="340" height="32" as="geometry" />
        </mxCell>
        <mxCell id="08A2mlQFigO-94BA-L4f-80" value="+ EliminarPersonaEntrega(BEEntrega,BEPersona): bool" style="text;strokeColor=none;fillColor=none;align=left;verticalAlign=top;spacingLeft=4;spacingRight=4;overflow=hidden;rotatable=0;points=[[0,0.5],[1,0.5]];portConstraint=eastwest;" parent="08A2mlQFigO-94BA-L4f-67" vertex="1">
          <mxGeometry y="312" width="340" height="32" as="geometry" />
        </mxCell>
        <mxCell id="08A2mlQFigO-94BA-L4f-81" value="BEUnidad" style="swimlane;fontStyle=1;align=center;verticalAlign=top;childLayout=stackLayout;horizontal=1;startSize=26;horizontalStack=0;resizeParent=1;resizeParentMax=0;resizeLast=0;collapsible=1;marginBottom=0;" parent="H-_01Mu2gKqrJwGbBytt-1" vertex="1">
          <mxGeometry x="-40" y="-120" width="160" height="132" as="geometry" />
        </mxCell>
        <mxCell id="08A2mlQFigO-94BA-L4f-83" value="+ Cod: string" style="text;strokeColor=none;fillColor=none;align=left;verticalAlign=top;spacingLeft=4;spacingRight=4;overflow=hidden;rotatable=0;points=[[0,0.5],[1,0.5]];portConstraint=eastwest;" parent="08A2mlQFigO-94BA-L4f-81" vertex="1">
          <mxGeometry y="26" width="160" height="26" as="geometry" />
        </mxCell>
        <mxCell id="08A2mlQFigO-94BA-L4f-84" value="+ Nombre: string" style="text;strokeColor=none;fillColor=none;align=left;verticalAlign=top;spacingLeft=4;spacingRight=4;overflow=hidden;rotatable=0;points=[[0,0.5],[1,0.5]];portConstraint=eastwest;" parent="08A2mlQFigO-94BA-L4f-81" vertex="1">
          <mxGeometry y="52" width="160" height="26" as="geometry" />
        </mxCell>
        <mxCell id="08A2mlQFigO-94BA-L4f-85" value="+ Ursa: BEUrsa&#xa;Â " style="text;strokeColor=none;fillColor=none;align=left;verticalAlign=top;spacingLeft=4;spacingRight=4;overflow=hidden;rotatable=0;points=[[0,0.5],[1,0.5]];portConstraint=eastwest;" parent="08A2mlQFigO-94BA-L4f-81" vertex="1">
          <mxGeometry y="78" width="160" height="20" as="geometry" />
        </mxCell>
        <mxCell id="08A2mlQFigO-94BA-L4f-86" value="" style="line;strokeWidth=1;fillColor=none;align=left;verticalAlign=middle;spacingTop=-1;spacingLeft=3;spacingRight=3;rotatable=0;labelPosition=right;points=[];portConstraint=eastwest;" parent="08A2mlQFigO-94BA-L4f-81" vertex="1">
          <mxGeometry y="98" width="160" height="8" as="geometry" />
        </mxCell>
        <mxCell id="08A2mlQFigO-94BA-L4f-87" value="+ ToString(): string" style="text;strokeColor=none;fillColor=none;align=left;verticalAlign=top;spacingLeft=4;spacingRight=4;overflow=hidden;rotatable=0;points=[[0,0.5],[1,0.5]];portConstraint=eastwest;" parent="08A2mlQFigO-94BA-L4f-81" vertex="1">
          <mxGeometry y="106" width="160" height="26" as="geometry" />
        </mxCell>
        <mxCell id="08A2mlQFigO-94BA-L4f-88" style="edgeStyle=orthogonalEdgeStyle;rounded=0;orthogonalLoop=1;jettySize=auto;html=1;dashed=1;" parent="H-_01Mu2gKqrJwGbBytt-1" source="08A2mlQFigO-94BA-L4f-89" target="08A2mlQFigO-94BA-L4f-13" edge="1">
          <mxGeometry relative="1" as="geometry">
            <Array as="points">
              <mxPoint x="-450" y="-490" />
              <mxPoint x="-450" y="-610" />
              <mxPoint x="435" y="-610" />
            </Array>
          </mxGeometry>
        </mxCell>
        <mxCell id="08A2mlQFigO-94BA-L4f-89" value="Categoria" style="swimlane;fontStyle=1;align=center;verticalAlign=top;childLayout=stackLayout;horizontal=1;startSize=26;horizontalStack=0;resizeParent=1;resizeParentMax=0;resizeLast=0;collapsible=1;marginBottom=0;" parent="H-_01Mu2gKqrJwGbBytt-1" vertex="1">
          <mxGeometry x="-380" y="-580" width="190" height="112" as="geometry" />
        </mxCell>
        <mxCell id="08A2mlQFigO-94BA-L4f-91" value="+ nombre: string&#xa;Â " style="text;strokeColor=none;fillColor=none;align=left;verticalAlign=top;spacingLeft=4;spacingRight=4;overflow=hidden;rotatable=0;points=[[0,0.5],[1,0.5]];portConstraint=eastwest;" parent="08A2mlQFigO-94BA-L4f-89" vertex="1">
          <mxGeometry y="26" width="190" height="26" as="geometry" />
        </mxCell>
        <mxCell id="G6LraAH82jEir2Y-ZNRT-0" value="+ Articulos : List&lt;BEArticulo&gt;&#xa;Â " style="text;strokeColor=none;fillColor=none;align=left;verticalAlign=top;spacingLeft=4;spacingRight=4;overflow=hidden;rotatable=0;points=[[0,0.5],[1,0.5]];portConstraint=eastwest;" parent="08A2mlQFigO-94BA-L4f-89" vertex="1">
          <mxGeometry y="52" width="190" height="26" as="geometry" />
        </mxCell>
        <mxCell id="08A2mlQFigO-94BA-L4f-92" value="" style="line;strokeWidth=1;fillColor=none;align=left;verticalAlign=middle;spacingTop=-1;spacingLeft=3;spacingRight=3;rotatable=0;labelPosition=right;points=[];portConstraint=eastwest;" parent="08A2mlQFigO-94BA-L4f-89" vertex="1">
          <mxGeometry y="78" width="190" height="8" as="geometry" />
        </mxCell>
        <mxCell id="08A2mlQFigO-94BA-L4f-93" value="+ ToString(): Nombre" style="text;strokeColor=none;fillColor=none;align=left;verticalAlign=top;spacingLeft=4;spacingRight=4;overflow=hidden;rotatable=0;points=[[0,0.5],[1,0.5]];portConstraint=eastwest;" parent="08A2mlQFigO-94BA-L4f-89" vertex="1">
          <mxGeometry y="86" width="190" height="26" as="geometry" />
        </mxCell>
        <mxCell id="08A2mlQFigO-94BA-L4f-94" style="edgeStyle=orthogonalEdgeStyle;rounded=0;orthogonalLoop=1;jettySize=auto;html=1;dashed=1;" parent="H-_01Mu2gKqrJwGbBytt-1" source="08A2mlQFigO-94BA-L4f-95" edge="1">
          <mxGeometry relative="1" as="geometry">
            <mxPoint x="340" y="-470" as="targetPoint" />
            <Array as="points">
              <mxPoint x="-350" y="-120" />
              <mxPoint x="-190" y="-120" />
              <mxPoint x="-190" y="-398" />
              <mxPoint x="190" y="-398" />
              <mxPoint x="190" y="-470" />
            </Array>
          </mxGeometry>
        </mxCell>
        <mxCell id="dQs4wgEXyiurEB1gUf8k-45" style="edgeStyle=none;rounded=0;orthogonalLoop=1;jettySize=auto;html=1;endArrow=block;endFill=0;endSize=12;" parent="H-_01Mu2gKqrJwGbBytt-1" source="08A2mlQFigO-94BA-L4f-95" target="dQs4wgEXyiurEB1gUf8k-40" edge="1">
          <mxGeometry relative="1" as="geometry" />
        </mxCell>
        <mxCell id="08A2mlQFigO-94BA-L4f-95" value="BEUrsa" style="swimlane;fontStyle=1;align=center;verticalAlign=top;childLayout=stackLayout;horizontal=1;startSize=26;horizontalStack=0;resizeParent=1;resizeParentMax=0;resizeLast=0;collapsible=1;marginBottom=0;" parent="H-_01Mu2gKqrJwGbBytt-1" vertex="1">
          <mxGeometry x="-440" y="-78" width="180" height="86" as="geometry" />
        </mxCell>
        <mxCell id="G6LraAH82jEir2Y-ZNRT-1" value="+ Unidades: List&lt;BEUnidad&gt;" style="text;strokeColor=none;fillColor=none;align=left;verticalAlign=top;spacingLeft=4;spacingRight=4;overflow=hidden;rotatable=0;points=[[0,0.5],[1,0.5]];portConstraint=eastwest;" parent="08A2mlQFigO-94BA-L4f-95" vertex="1">
          <mxGeometry y="26" width="180" height="26" as="geometry" />
        </mxCell>
        <mxCell id="08A2mlQFigO-94BA-L4f-98" value="" style="line;strokeWidth=1;fillColor=none;align=left;verticalAlign=middle;spacingTop=-1;spacingLeft=3;spacingRight=3;rotatable=0;labelPosition=right;points=[];portConstraint=eastwest;" parent="08A2mlQFigO-94BA-L4f-95" vertex="1">
          <mxGeometry y="52" width="180" height="8" as="geometry" />
        </mxCell>
        <mxCell id="08A2mlQFigO-94BA-L4f-99" value="+ ToString(): string" style="text;strokeColor=none;fillColor=none;align=left;verticalAlign=top;spacingLeft=4;spacingRight=4;overflow=hidden;rotatable=0;points=[[0,0.5],[1,0.5]];portConstraint=eastwest;" parent="08A2mlQFigO-94BA-L4f-95" vertex="1">
          <mxGeometry y="60" width="180" height="26" as="geometry" />
        </mxCell>
        <mxCell id="08A2mlQFigO-94BA-L4f-100" value="" style="endArrow=block;endSize=16;endFill=0;html=1;" parent="H-_01Mu2gKqrJwGbBytt-1" source="08A2mlQFigO-94BA-L4f-31" target="08A2mlQFigO-94BA-L4f-22" edge="1">
          <mxGeometry x="0.6744" y="-80" width="160" relative="1" as="geometry">
            <mxPoint x="300" y="240" as="sourcePoint" />
            <mxPoint x="460" y="240" as="targetPoint" />
            <mxPoint as="offset" />
          </mxGeometry>
        </mxCell>
        <mxCell id="08A2mlQFigO-94BA-L4f-101" value="" style="endArrow=block;endSize=16;endFill=0;html=1;" parent="H-_01Mu2gKqrJwGbBytt-1" source="08A2mlQFigO-94BA-L4f-39" target="08A2mlQFigO-94BA-L4f-22" edge="1">
          <mxGeometry x="0.5148" y="92" width="160" relative="1" as="geometry">
            <mxPoint x="496.3286713286716" y="400" as="sourcePoint" />
            <mxPoint x="541.0839160839164" y="320.0000000000002" as="targetPoint" />
            <mxPoint as="offset" />
          </mxGeometry>
        </mxCell>
        <mxCell id="08A2mlQFigO-94BA-L4f-102" value="" style="endArrow=none;html=1;entryX=0.373;entryY=-0.004;entryDx=0;entryDy=0;entryPerimeter=0;" parent="H-_01Mu2gKqrJwGbBytt-1" source="08A2mlQFigO-94BA-L4f-89" target="08A2mlQFigO-94BA-L4f-15" edge="1">
          <mxGeometry x="-445" y="-240" as="geometry">
            <mxPoint x="-280" y="-210" as="sourcePoint" />
            <mxPoint x="-120" y="-210" as="targetPoint" />
          </mxGeometry>
        </mxCell>
        <mxCell id="08A2mlQFigO-94BA-L4f-103" value="Tiene" style="edgeLabel;html=1;align=center;verticalAlign=middle;resizable=0;points=[];" parent="08A2mlQFigO-94BA-L4f-102" vertex="1" connectable="0">
          <mxGeometry x="-0.2926" y="1" relative="1" as="geometry">
            <mxPoint as="offset" />
          </mxGeometry>
        </mxCell>
        <mxCell id="08A2mlQFigO-94BA-L4f-104" value="" style="endArrow=none;html=1;edgeStyle=orthogonalEdgeStyle;" parent="H-_01Mu2gKqrJwGbBytt-1" source="08A2mlQFigO-94BA-L4f-107" target="08A2mlQFigO-94BA-L4f-22" edge="1">
          <mxGeometry relative="1" as="geometry">
            <mxPoint x="120" y="-98" as="sourcePoint" />
            <mxPoint x="180" y="181" as="targetPoint" />
            <Array as="points">
              <mxPoint x="220" y="90" />
            </Array>
          </mxGeometry>
        </mxCell>
        <mxCell id="08A2mlQFigO-94BA-L4f-105" value="(1)" style="text;html=1;align=center;verticalAlign=middle;resizable=0;points=[];autosize=1;" parent="H-_01Mu2gKqrJwGbBytt-1" vertex="1">
          <mxGeometry x="120" y="-110" width="30" height="20" as="geometry" />
        </mxCell>
        <mxCell id="08A2mlQFigO-94BA-L4f-106" value="(1)" style="text;html=1;align=center;verticalAlign=middle;resizable=0;points=[];autosize=1;" parent="H-_01Mu2gKqrJwGbBytt-1" vertex="1">
          <mxGeometry x="300" y="340" width="30" height="20" as="geometry" />
        </mxCell>
        <mxCell id="08A2mlQFigO-94BA-L4f-107" value="Contiene" style="text;html=1;align=center;verticalAlign=middle;resizable=0;points=[];autosize=1;" parent="H-_01Mu2gKqrJwGbBytt-1" vertex="1">
          <mxGeometry x="190" y="49" width="60" height="20" as="geometry" />
        </mxCell>
        <mxCell id="08A2mlQFigO-94BA-L4f-108" value="" style="endArrow=none;html=1;edgeStyle=orthogonalEdgeStyle;" parent="H-_01Mu2gKqrJwGbBytt-1" target="08A2mlQFigO-94BA-L4f-107" edge="1">
          <mxGeometry relative="1" as="geometry">
            <mxPoint x="120" y="-81" as="sourcePoint" />
            <mxPoint x="480" y="59" as="targetPoint" />
            <Array as="points" />
          </mxGeometry>
        </mxCell>
        <mxCell id="08A2mlQFigO-94BA-L4f-109" value="(1,n)" style="text;html=1;align=center;verticalAlign=middle;resizable=0;points=[];autosize=1;" parent="H-_01Mu2gKqrJwGbBytt-1" vertex="1">
          <mxGeometry x="430" y="64" width="40" height="20" as="geometry" />
        </mxCell>
        <mxCell id="08A2mlQFigO-94BA-L4f-110" value="" style="endArrow=block;endSize=16;endFill=0;html=1;" parent="H-_01Mu2gKqrJwGbBytt-1" source="08A2mlQFigO-94BA-L4f-59" target="08A2mlQFigO-94BA-L4f-67" edge="1">
          <mxGeometry x="0.5148" y="92" width="160" relative="1" as="geometry">
            <mxPoint x="1075.6116216216217" y="640" as="sourcePoint" />
            <mxPoint x="1030.0035135135133" y="550" as="targetPoint" />
            <mxPoint as="offset" />
          </mxGeometry>
        </mxCell>
        <mxCell id="08A2mlQFigO-94BA-L4f-111" style="edgeStyle=orthogonalEdgeStyle;rounded=0;orthogonalLoop=1;jettySize=auto;html=1;endArrow=none;endFill=0;" parent="H-_01Mu2gKqrJwGbBytt-1" source="08A2mlQFigO-94BA-L4f-47" target="08A2mlQFigO-94BA-L4f-1" edge="1">
          <mxGeometry relative="1" as="geometry">
            <Array as="points">
              <mxPoint x="250" y="690" />
              <mxPoint x="250" y="452" />
            </Array>
            <mxPoint x="340" y="730" as="sourcePoint" />
          </mxGeometry>
        </mxCell>
        <mxCell id="08A2mlQFigO-94BA-L4f-112" value="Posee" style="edgeLabel;html=1;align=center;verticalAlign=middle;resizable=0;points=[];" parent="08A2mlQFigO-94BA-L4f-111" vertex="1" connectable="0">
          <mxGeometry x="-0.0463" y="-2" relative="1" as="geometry">
            <mxPoint as="offset" />
          </mxGeometry>
        </mxCell>
        <mxCell id="08A2mlQFigO-94BA-L4f-113" value="Posee" style="edgeLabel;html=1;align=center;verticalAlign=middle;resizable=0;points=[];" parent="08A2mlQFigO-94BA-L4f-111" vertex="1" connectable="0">
          <mxGeometry x="-0.0463" y="-2" relative="1" as="geometry">
            <mxPoint x="925.29" y="-588.06" as="offset" />
          </mxGeometry>
        </mxCell>
        <mxCell id="08A2mlQFigO-94BA-L4f-114" value="(1,*)" style="text;html=1;align=center;verticalAlign=middle;resizable=0;points=[];autosize=1;" parent="H-_01Mu2gKqrJwGbBytt-1" vertex="1">
          <mxGeometry x="210" y="430" width="40" height="20" as="geometry" />
        </mxCell>
        <mxCell id="08A2mlQFigO-94BA-L4f-115" value="(0,*)" style="text;html=1;align=center;verticalAlign=middle;resizable=0;points=[];autosize=1;" parent="H-_01Mu2gKqrJwGbBytt-1" vertex="1">
          <mxGeometry x="1230" y="205" width="40" height="20" as="geometry" />
        </mxCell>
        <mxCell id="08A2mlQFigO-94BA-L4f-116" value="" style="group" parent="H-_01Mu2gKqrJwGbBytt-1" vertex="1" connectable="0">
          <mxGeometry x="-100" y="-300" width="60" height="271" as="geometry" />
        </mxCell>
        <mxCell id="08A2mlQFigO-94BA-L4f-117" value="(1,n)" style="text;html=1;align=center;verticalAlign=middle;resizable=0;points=[];autosize=1;" parent="08A2mlQFigO-94BA-L4f-116" vertex="1">
          <mxGeometry x="20" y="244" width="40" height="20" as="geometry" />
        </mxCell>
        <mxCell id="08A2mlQFigO-94BA-L4f-118" style="edgeStyle=orthogonalEdgeStyle;rounded=0;orthogonalLoop=1;jettySize=auto;html=1;entryX=0;entryY=0.5;entryDx=0;entryDy=0;endArrow=none;endFill=0;startArrow=none;startFill=0;endSize=12;startSize=16;" parent="H-_01Mu2gKqrJwGbBytt-1" source="08A2mlQFigO-94BA-L4f-27" edge="1">
          <mxGeometry relative="1" as="geometry">
            <Array as="points">
              <mxPoint x="780" y="94" />
              <mxPoint x="780" y="130" />
              <mxPoint x="1150" y="130" />
            </Array>
            <mxPoint x="1150.0000000000005" y="269" as="targetPoint" />
          </mxGeometry>
        </mxCell>
        <mxCell id="08A2mlQFigO-94BA-L4f-119" value="Participan" style="edgeLabel;html=1;align=center;verticalAlign=middle;resizable=0;points=[];" parent="08A2mlQFigO-94BA-L4f-118" vertex="1" connectable="0">
          <mxGeometry x="0.2343" y="-2" relative="1" as="geometry">
            <mxPoint as="offset" />
          </mxGeometry>
        </mxCell>
        <mxCell id="08A2mlQFigO-94BA-L4f-120" value="(1,*)" style="text;html=1;align=center;verticalAlign=middle;resizable=0;points=[];autosize=1;" parent="H-_01Mu2gKqrJwGbBytt-1" vertex="1">
          <mxGeometry x="740" y="102" width="40" height="20" as="geometry" />
        </mxCell>
        <mxCell id="08A2mlQFigO-94BA-L4f-121" value="(0,*)" style="text;html=1;align=center;verticalAlign=middle;resizable=0;points=[];autosize=1;" parent="H-_01Mu2gKqrJwGbBytt-1" vertex="1">
          <mxGeometry x="1110" y="240" width="40" height="20" as="geometry" />
        </mxCell>
        <mxCell id="08A2mlQFigO-94BA-L4f-122" value="(1)" style="text;html=1;align=center;verticalAlign=middle;resizable=0;points=[];autosize=1;" parent="H-_01Mu2gKqrJwGbBytt-1" vertex="1">
          <mxGeometry x="-310" y="-468" width="30" height="20" as="geometry" />
        </mxCell>
        <mxCell id="08A2mlQFigO-94BA-L4f-123" value="(1,n)" style="text;html=1;align=center;verticalAlign=middle;resizable=0;points=[];autosize=1;" parent="H-_01Mu2gKqrJwGbBytt-1" vertex="1">
          <mxGeometry x="-350" y="-350" width="40" height="20" as="geometry" />
        </mxCell>
        <mxCell id="08A2mlQFigO-94BA-L4f-124" value="" style="endArrow=none;html=1;edgeStyle=orthogonalEdgeStyle;" parent="H-_01Mu2gKqrJwGbBytt-1" source="08A2mlQFigO-94BA-L4f-95" target="08A2mlQFigO-94BA-L4f-81" edge="1">
          <mxGeometry relative="1" as="geometry">
            <mxPoint x="-440" y="-227.99999999999977" as="sourcePoint" />
            <mxPoint x="-350" y="-89" as="targetPoint" />
            <Array as="points">
              <mxPoint x="-100" y="-29" />
            </Array>
          </mxGeometry>
        </mxCell>
        <mxCell id="08A2mlQFigO-94BA-L4f-125" value="Tiene" style="edgeLabel;html=1;align=center;verticalAlign=middle;resizable=0;points=[];" parent="08A2mlQFigO-94BA-L4f-124" vertex="1" connectable="0">
          <mxGeometry x="-0.3362" relative="1" as="geometry">
            <mxPoint as="offset" />
          </mxGeometry>
        </mxCell>
        <mxCell id="08A2mlQFigO-94BA-L4f-126" style="edgeStyle=orthogonalEdgeStyle;rounded=0;orthogonalLoop=1;jettySize=auto;html=1;dashed=1;" parent="H-_01Mu2gKqrJwGbBytt-1" source="08A2mlQFigO-94BA-L4f-127" target="08A2mlQFigO-94BA-L4f-13" edge="1">
          <mxGeometry relative="1" as="geometry" />
        </mxCell>
        <mxCell id="08A2mlQFigO-94BA-L4f-127" value="&lt;p style=&quot;margin: 0px ; margin-top: 4px ; text-align: center&quot;&gt;&lt;i&gt;&amp;lt;&amp;lt;Interface&amp;gt;&amp;gt;&lt;/i&gt;&lt;br&gt;&lt;b&gt;IEntidad&lt;/b&gt;&lt;/p&gt;&lt;hr size=&quot;1&quot;&gt;&lt;p style=&quot;margin: 0px ; margin-left: 4px&quot;&gt;&lt;/p&gt;&lt;p style=&quot;margin: 0px ; margin-left: 4px&quot;&gt;+ Id: int&lt;br&gt;&lt;br&gt;&lt;/p&gt;" style="verticalAlign=top;align=left;overflow=fill;fontSize=12;fontFamily=Helvetica;html=1;fillColor=#cce5ff;strokeColor=#36393d;" parent="H-_01Mu2gKqrJwGbBytt-1" vertex="1">
          <mxGeometry x="630" y="-522" width="160" height="71" as="geometry" />
        </mxCell>
        <mxCell id="08A2mlQFigO-94BA-L4f-128" style="edgeStyle=orthogonalEdgeStyle;rounded=0;orthogonalLoop=1;jettySize=auto;html=1;dashed=1;" parent="H-_01Mu2gKqrJwGbBytt-1" source="08A2mlQFigO-94BA-L4f-95" target="08A2mlQFigO-94BA-L4f-127" edge="1">
          <mxGeometry relative="1" as="geometry">
            <mxPoint x="40" y="-388" as="sourcePoint" />
            <mxPoint x="350" y="-460.5" as="targetPoint" />
            <Array as="points">
              <mxPoint x="-350" y="-120" />
              <mxPoint x="-190" y="-120" />
              <mxPoint x="-190" y="-398" />
              <mxPoint x="190" y="-398" />
              <mxPoint x="190" y="-560" />
              <mxPoint x="670" y="-560" />
            </Array>
          </mxGeometry>
        </mxCell>
        <mxCell id="08A2mlQFigO-94BA-L4f-129" style="edgeStyle=none;rounded=0;orthogonalLoop=1;jettySize=auto;html=1;dashed=1;" parent="H-_01Mu2gKqrJwGbBytt-1" source="08A2mlQFigO-94BA-L4f-15" target="08A2mlQFigO-94BA-L4f-127" edge="1">
          <mxGeometry relative="1" as="geometry">
            <Array as="points">
              <mxPoint x="50" y="-270" />
              <mxPoint x="270" y="-370" />
              <mxPoint x="650" y="-370" />
            </Array>
            <mxPoint x="-190" y="-86.0967741935483" as="sourcePoint" />
            <mxPoint x="363.35329341317356" y="-410" as="targetPoint" />
          </mxGeometry>
        </mxCell>
        <mxCell id="08A2mlQFigO-94BA-L4f-130" style="edgeStyle=none;rounded=0;orthogonalLoop=1;jettySize=auto;html=1;dashed=1;" parent="H-_01Mu2gKqrJwGbBytt-1" source="08A2mlQFigO-94BA-L4f-22" target="08A2mlQFigO-94BA-L4f-127" edge="1">
          <mxGeometry relative="1" as="geometry">
            <mxPoint x="866.1161189801701" y="-80" as="sourcePoint" />
            <mxPoint x="739.9971388101985" y="-451" as="targetPoint" />
            <Array as="points">
              <mxPoint x="570" y="-290" />
            </Array>
          </mxGeometry>
        </mxCell>
        <mxCell id="08A2mlQFigO-94BA-L4f-131" style="edgeStyle=orthogonalEdgeStyle;rounded=0;orthogonalLoop=1;jettySize=auto;html=1;dashed=1;" parent="H-_01Mu2gKqrJwGbBytt-1" source="08A2mlQFigO-94BA-L4f-89" target="08A2mlQFigO-94BA-L4f-127" edge="1">
          <mxGeometry relative="1" as="geometry">
            <Array as="points">
              <mxPoint x="-450" y="-486" />
              <mxPoint x="-450" y="-610" />
              <mxPoint x="730" y="-610" />
            </Array>
            <mxPoint x="-370.0000000000002" y="-459" as="sourcePoint" />
            <mxPoint x="445" y="-410" as="targetPoint" />
          </mxGeometry>
        </mxCell>
        <mxCell id="08A2mlQFigO-94BA-L4f-132" style="edgeStyle=none;rounded=0;orthogonalLoop=1;jettySize=auto;html=1;dashed=1;" parent="H-_01Mu2gKqrJwGbBytt-1" source="08A2mlQFigO-94BA-L4f-1" target="08A2mlQFigO-94BA-L4f-127" edge="1">
          <mxGeometry relative="1" as="geometry">
            <mxPoint x="123.50372208436715" y="320" as="sourcePoint" />
            <mxPoint x="424.19851116625296" y="-410" as="targetPoint" />
            <Array as="points">
              <mxPoint x="250" y="-60" />
              <mxPoint x="320" y="-190" />
            </Array>
          </mxGeometry>
        </mxCell>
        <mxCell id="08A2mlQFigO-94BA-L4f-133" style="edgeStyle=none;rounded=0;orthogonalLoop=1;jettySize=auto;html=1;dashed=1;exitX=0.75;exitY=0;exitDx=0;exitDy=0;" parent="H-_01Mu2gKqrJwGbBytt-1" source="08A2mlQFigO-94BA-L4f-81" target="08A2mlQFigO-94BA-L4f-13" edge="1">
          <mxGeometry relative="1" as="geometry">
            <mxPoint x="588.2861189801702" y="-39" as="sourcePoint" />
            <mxPoint x="462.16713881019814" y="-410" as="targetPoint" />
          </mxGeometry>
        </mxCell>
        <mxCell id="08A2mlQFigO-94BA-L4f-134" style="edgeStyle=none;rounded=0;orthogonalLoop=1;jettySize=auto;html=1;dashed=1;exitX=0.75;exitY=0;exitDx=0;exitDy=0;" parent="H-_01Mu2gKqrJwGbBytt-1" source="08A2mlQFigO-94BA-L4f-81" target="08A2mlQFigO-94BA-L4f-127" edge="1">
          <mxGeometry relative="1" as="geometry">
            <mxPoint x="100" y="-97.6470588235294" as="sourcePoint" />
            <mxPoint x="393.85164051355196" y="-410" as="targetPoint" />
            <Array as="points">
              <mxPoint x="290" y="-330" />
            </Array>
          </mxGeometry>
        </mxCell>
        <mxCell id="08A2mlQFigO-94BA-L4f-135" style="edgeStyle=orthogonalEdgeStyle;rounded=0;orthogonalLoop=1;jettySize=auto;html=1;dashed=1;" parent="H-_01Mu2gKqrJwGbBytt-1" source="08A2mlQFigO-94BA-L4f-54" target="08A2mlQFigO-94BA-L4f-127" edge="1">
          <mxGeometry relative="1" as="geometry">
            <Array as="points">
              <mxPoint x="1180" y="-160" />
              <mxPoint x="930" y="-160" />
              <mxPoint x="930" y="-340" />
              <mxPoint x="820" y="-340" />
              <mxPoint x="820" y="-486" />
            </Array>
            <mxPoint x="1180" y="-90.00000000000023" as="sourcePoint" />
            <mxPoint x="500" y="-410" as="targetPoint" />
          </mxGeometry>
        </mxCell>
        <mxCell id="08A2mlQFigO-94BA-L4f-136" style="edgeStyle=orthogonalEdgeStyle;rounded=0;orthogonalLoop=1;jettySize=auto;html=1;dashed=1;" parent="H-_01Mu2gKqrJwGbBytt-1" source="08A2mlQFigO-94BA-L4f-67" target="08A2mlQFigO-94BA-L4f-127" edge="1">
          <mxGeometry relative="1" as="geometry">
            <Array as="points">
              <mxPoint x="1320" y="-190" />
              <mxPoint x="700" y="-190" />
            </Array>
            <mxPoint x="1320" y="240" as="sourcePoint" />
            <mxPoint x="445" y="-410" as="targetPoint" />
          </mxGeometry>
        </mxCell>
        <mxCell id="08A2mlQFigO-94BA-L4f-137" style="edgeStyle=orthogonalEdgeStyle;rounded=0;orthogonalLoop=1;jettySize=auto;html=1;dashed=1;" parent="H-_01Mu2gKqrJwGbBytt-1" source="08A2mlQFigO-94BA-L4f-47" target="08A2mlQFigO-94BA-L4f-127" edge="1">
          <mxGeometry relative="1" as="geometry">
            <Array as="points">
              <mxPoint x="1020" y="690" />
              <mxPoint x="1020" y="-520" />
            </Array>
            <mxPoint x="720" y="694" as="sourcePoint" />
            <mxPoint x="510" y="-410" as="targetPoint" />
          </mxGeometry>
        </mxCell>
        <mxCell id="08A2mlQFigO-94BA-L4f-138" value="(1)" style="text;html=1;align=center;verticalAlign=middle;resizable=0;points=[];autosize=1;" parent="H-_01Mu2gKqrJwGbBytt-1" vertex="1">
          <mxGeometry x="-260" y="-29" width="30" height="20" as="geometry" />
        </mxCell>
        <mxCell id="08A2mlQFigO-94BA-L4f-139" value="Tiene" style="endArrow=open;html=1;endSize=12;startArrow=diamondThin;startSize=14;startFill=1;edgeStyle=orthogonalEdgeStyle;" parent="H-_01Mu2gKqrJwGbBytt-1" source="08A2mlQFigO-94BA-L4f-31" target="08A2mlQFigO-94BA-L4f-1" edge="1">
          <mxGeometry relative="1" as="geometry">
            <mxPoint x="460" y="240" as="sourcePoint" />
            <mxPoint x="300" y="240" as="targetPoint" />
            <Array as="points">
              <mxPoint x="250" y="365" />
              <mxPoint x="250" y="365" />
            </Array>
          </mxGeometry>
        </mxCell>
        <mxCell id="08A2mlQFigO-94BA-L4f-143" value="(1,n)" style="text;html=1;align=center;verticalAlign=middle;resizable=0;points=[];autosize=1;" parent="H-_01Mu2gKqrJwGbBytt-1" vertex="1">
          <mxGeometry x="220" y="330" width="40" height="20" as="geometry" />
        </mxCell>
        <mxCell id="08A2mlQFigO-94BA-L4f-144" value="Tiene" style="endArrow=open;html=1;endSize=12;startArrow=diamondThin;startSize=14;startFill=0;edgeStyle=orthogonalEdgeStyle;" parent="H-_01Mu2gKqrJwGbBytt-1" source="08A2mlQFigO-94BA-L4f-39" target="08A2mlQFigO-94BA-L4f-1" edge="1">
          <mxGeometry relative="1" as="geometry">
            <mxPoint x="410" y="500" as="sourcePoint" />
            <mxPoint x="280" y="500" as="targetPoint" />
            <Array as="points">
              <mxPoint x="815" y="500" />
            </Array>
          </mxGeometry>
        </mxCell>
        <mxCell id="08A2mlQFigO-94BA-L4f-145" value="(1)" style="edgeLabel;resizable=0;html=1;align=left;verticalAlign=top;" parent="08A2mlQFigO-94BA-L4f-144" connectable="0" vertex="1">
          <mxGeometry x="-1" relative="1" as="geometry">
            <mxPoint x="-295" y="262" as="offset" />
          </mxGeometry>
        </mxCell>
        <mxCell id="08A2mlQFigO-94BA-L4f-148" value="(1)" style="text;html=1;align=center;verticalAlign=middle;resizable=0;points=[];autosize=1;" parent="H-_01Mu2gKqrJwGbBytt-1" vertex="1">
          <mxGeometry x="780" y="440" width="30" height="20" as="geometry" />
        </mxCell>
        <mxCell id="08A2mlQFigO-94BA-L4f-149" value="(1,n)" style="text;html=1;align=center;verticalAlign=middle;resizable=0;points=[];autosize=1;" parent="H-_01Mu2gKqrJwGbBytt-1" vertex="1">
          <mxGeometry x="260" y="480" width="40" height="20" as="geometry" />
        </mxCell>
        <mxCell id="WYtthIlqHay8PLY1lMA2-0" value="0.*" style="text;html=1;align=center;verticalAlign=middle;resizable=0;points=[];autosize=1;" parent="H-_01Mu2gKqrJwGbBytt-1" vertex="1">
          <mxGeometry x="1300" y="760" width="30" height="20" as="geometry" />
        </mxCell>
        <mxCell id="WYtthIlqHay8PLY1lMA2-1" value="0.1" style="text;html=1;align=center;verticalAlign=middle;resizable=0;points=[];autosize=1;" parent="H-_01Mu2gKqrJwGbBytt-1" vertex="1">
          <mxGeometry x="1490" y="760" width="30" height="20" as="geometry" />
        </mxCell>
        <mxCell id="WYtthIlqHay8PLY1lMA2-32" value="*" style="text;html=1;align=center;verticalAlign=middle;resizable=0;points=[];autosize=1;strokeColor=none;" parent="H-_01Mu2gKqrJwGbBytt-1" vertex="1">
          <mxGeometry x="720" y="119" width="20" height="20" as="geometry" />
        </mxCell>
        <mxCell id="WYtthIlqHay8PLY1lMA2-34" value="BEPermiso" style="swimlane;fontStyle=2;align=center;verticalAlign=top;childLayout=stackLayout;horizontal=1;startSize=26;horizontalStack=0;resizeParent=1;resizeLast=0;collapsible=1;marginBottom=0;rounded=0;shadow=0;strokeWidth=1;" parent="H-_01Mu2gKqrJwGbBytt-1" vertex="1">
          <mxGeometry x="1690" y="-20" width="240" height="130" as="geometry">
            <mxRectangle x="230" y="140" width="160" height="26" as="alternateBounds" />
          </mxGeometry>
        </mxCell>
        <mxCell id="WYtthIlqHay8PLY1lMA2-64" value="+ Nombre: string" style="text;strokeColor=none;fillColor=none;align=left;verticalAlign=top;spacingLeft=4;spacingRight=4;overflow=hidden;rotatable=0;points=[[0,0.5],[1,0.5]];portConstraint=eastwest;" parent="WYtthIlqHay8PLY1lMA2-34" vertex="1">
          <mxGeometry y="26" width="240" height="26" as="geometry" />
        </mxCell>
        <mxCell id="WYtthIlqHay8PLY1lMA2-65" value="+ Descripcion: string" style="text;strokeColor=none;fillColor=none;align=left;verticalAlign=top;spacingLeft=4;spacingRight=4;overflow=hidden;rotatable=0;points=[[0,0.5],[1,0.5]];portConstraint=eastwest;" parent="WYtthIlqHay8PLY1lMA2-34" vertex="1">
          <mxGeometry y="52" width="240" height="30" as="geometry" />
        </mxCell>
        <mxCell id="WYtthIlqHay8PLY1lMA2-37" value="" style="line;html=1;strokeWidth=1;align=left;verticalAlign=middle;spacingTop=-1;spacingLeft=3;spacingRight=3;rotatable=0;labelPosition=right;points=[];portConstraint=eastwest;" parent="WYtthIlqHay8PLY1lMA2-34" vertex="1">
          <mxGeometry y="82" width="240" height="8" as="geometry" />
        </mxCell>
        <mxCell id="WYtthIlqHay8PLY1lMA2-38" value="+ RetornaPermisos () :List&lt;BEPermiso&gt;Â Â " style="text;align=left;verticalAlign=top;spacingLeft=4;spacingRight=4;overflow=hidden;rotatable=0;points=[[0,0.5],[1,0.5]];portConstraint=eastwest;fontStyle=2" parent="WYtthIlqHay8PLY1lMA2-34" vertex="1">
          <mxGeometry y="90" width="240" height="26" as="geometry" />
        </mxCell>
        <mxCell id="WYtthIlqHay8PLY1lMA2-39" value="BEPermiso_Simple" style="swimlane;fontStyle=0;align=center;verticalAlign=top;childLayout=stackLayout;horizontal=1;startSize=26;horizontalStack=0;resizeParent=1;resizeLast=0;collapsible=1;marginBottom=0;rounded=0;shadow=0;strokeWidth=1;" parent="H-_01Mu2gKqrJwGbBytt-1" vertex="1">
          <mxGeometry x="1550" y="380" width="240" height="96" as="geometry">
            <mxRectangle x="130" y="380" width="160" height="26" as="alternateBounds" />
          </mxGeometry>
        </mxCell>
        <mxCell id="WYtthIlqHay8PLY1lMA2-40" value="" style="line;html=1;strokeWidth=1;align=left;verticalAlign=middle;spacingTop=-1;spacingLeft=3;spacingRight=3;rotatable=0;labelPosition=right;points=[];portConstraint=eastwest;" parent="WYtthIlqHay8PLY1lMA2-39" vertex="1">
          <mxGeometry y="26" width="240" height="44" as="geometry" />
        </mxCell>
        <mxCell id="WYtthIlqHay8PLY1lMA2-73" value="+ RetornaPermisos () :List&lt;BEPermiso&gt;Â Â " style="text;align=left;verticalAlign=top;spacingLeft=4;spacingRight=4;overflow=hidden;rotatable=0;points=[[0,0.5],[1,0.5]];portConstraint=eastwest;fontStyle=0" parent="WYtthIlqHay8PLY1lMA2-39" vertex="1">
          <mxGeometry y="70" width="240" height="26" as="geometry" />
        </mxCell>
        <mxCell id="WYtthIlqHay8PLY1lMA2-43" value="" style="endArrow=block;endSize=10;endFill=0;shadow=0;strokeWidth=1;rounded=0;edgeStyle=elbowEdgeStyle;elbow=vertical;" parent="H-_01Mu2gKqrJwGbBytt-1" source="WYtthIlqHay8PLY1lMA2-39" target="WYtthIlqHay8PLY1lMA2-34" edge="1">
          <mxGeometry width="160" relative="1" as="geometry">
            <mxPoint x="1680" y="223" as="sourcePoint" />
            <mxPoint x="1680" y="223" as="targetPoint" />
          </mxGeometry>
        </mxCell>
        <mxCell id="WYtthIlqHay8PLY1lMA2-44" value="BEPermiso_Compuesto&#xa;" style="swimlane;fontStyle=0;align=center;verticalAlign=top;childLayout=stackLayout;horizontal=1;startSize=26;horizontalStack=0;resizeParent=1;resizeLast=0;collapsible=1;marginBottom=0;rounded=0;shadow=0;strokeWidth=1;" parent="H-_01Mu2gKqrJwGbBytt-1" vertex="1">
          <mxGeometry x="1830" y="380" width="220" height="164" as="geometry">
            <mxRectangle x="340" y="380" width="170" height="26" as="alternateBounds" />
          </mxGeometry>
        </mxCell>
        <mxCell id="WYtthIlqHay8PLY1lMA2-45" value="List&lt;BEPermiso&gt; Lista_Permisos" style="text;align=left;verticalAlign=top;spacingLeft=4;spacingRight=4;overflow=hidden;rotatable=0;points=[[0,0.5],[1,0.5]];portConstraint=eastwest;" parent="WYtthIlqHay8PLY1lMA2-44" vertex="1">
          <mxGeometry y="26" width="220" height="26" as="geometry" />
        </mxCell>
        <mxCell id="WYtthIlqHay8PLY1lMA2-46" value="" style="line;html=1;strokeWidth=1;align=left;verticalAlign=middle;spacingTop=-1;spacingLeft=3;spacingRight=3;rotatable=0;labelPosition=right;points=[];portConstraint=eastwest;" parent="WYtthIlqHay8PLY1lMA2-44" vertex="1">
          <mxGeometry y="52" width="220" height="8" as="geometry" />
        </mxCell>
        <mxCell id="WYtthIlqHay8PLY1lMA2-72" value="+ RetornaPermisos () :List&lt;BEPermiso&gt;Â Â " style="text;align=left;verticalAlign=top;spacingLeft=4;spacingRight=4;overflow=hidden;rotatable=0;points=[[0,0.5],[1,0.5]];portConstraint=eastwest;" parent="WYtthIlqHay8PLY1lMA2-44" vertex="1">
          <mxGeometry y="60" width="220" height="26" as="geometry" />
        </mxCell>
        <mxCell id="WYtthIlqHay8PLY1lMA2-70" value="+ AgregarPermiso (BEPermiso) :void" style="text;align=left;verticalAlign=top;spacingLeft=4;spacingRight=4;overflow=hidden;rotatable=0;points=[[0,0.5],[1,0.5]];portConstraint=eastwest;" parent="WYtthIlqHay8PLY1lMA2-44" vertex="1">
          <mxGeometry y="86" width="220" height="24" as="geometry" />
        </mxCell>
        <mxCell id="WYtthIlqHay8PLY1lMA2-71" value="+ EliminarPermiso (BEPermiso):void" style="text;align=left;verticalAlign=top;spacingLeft=4;spacingRight=4;overflow=hidden;rotatable=0;points=[[0,0.5],[1,0.5]];portConstraint=eastwest;" parent="WYtthIlqHay8PLY1lMA2-44" vertex="1">
          <mxGeometry y="110" width="220" height="26" as="geometry" />
        </mxCell>
        <mxCell id="WYtthIlqHay8PLY1lMA2-47" value="" style="endArrow=block;endSize=10;endFill=0;shadow=0;strokeWidth=1;rounded=0;edgeStyle=elbowEdgeStyle;elbow=vertical;fillColor=#f8cecc;" parent="H-_01Mu2gKqrJwGbBytt-1" source="WYtthIlqHay8PLY1lMA2-44" target="WYtthIlqHay8PLY1lMA2-34" edge="1">
          <mxGeometry width="160" relative="1" as="geometry">
            <mxPoint x="1690" y="393" as="sourcePoint" />
            <mxPoint x="1790" y="291" as="targetPoint" />
          </mxGeometry>
        </mxCell>
        <mxCell id="WYtthIlqHay8PLY1lMA2-52" value="" style="endArrow=diamondThin;endFill=0;endSize=24;html=1;edgeStyle=orthogonalEdgeStyle;" parent="H-_01Mu2gKqrJwGbBytt-1" source="WYtthIlqHay8PLY1lMA2-44" target="WYtthIlqHay8PLY1lMA2-57" edge="1">
          <mxGeometry width="160" relative="1" as="geometry">
            <mxPoint x="2300" y="455" as="sourcePoint" />
            <mxPoint x="1659.9999999999995" y="946.8888888888887" as="targetPoint" />
            <Array as="points">
              <mxPoint x="1930" y="596" />
              <mxPoint x="1600" y="596" />
            </Array>
          </mxGeometry>
        </mxCell>
        <mxCell id="WYtthIlqHay8PLY1lMA2-53" value="" style="endArrow=diamondThin;endFill=0;endSize=24;html=1;fillColor=#f8cecc;" parent="H-_01Mu2gKqrJwGbBytt-1" source="WYtthIlqHay8PLY1lMA2-34" target="WYtthIlqHay8PLY1lMA2-44" edge="1">
          <mxGeometry width="160" relative="1" as="geometry">
            <mxPoint x="1890" y="75" as="sourcePoint" />
            <mxPoint x="1990" y="459.9999999999998" as="targetPoint" />
            <Array as="points">
              <mxPoint x="2100" y="75" />
              <mxPoint x="2100" y="310" />
              <mxPoint x="2100" y="458" />
            </Array>
          </mxGeometry>
        </mxCell>
        <mxCell id="WYtthIlqHay8PLY1lMA2-54" value="1.*" style="text;html=1;align=center;verticalAlign=middle;resizable=0;points=[];autosize=1;strokeColor=none;" parent="H-_01Mu2gKqrJwGbBytt-1" vertex="1">
          <mxGeometry x="1935" y="50" width="30" height="20" as="geometry" />
        </mxCell>
        <mxCell id="WYtthIlqHay8PLY1lMA2-57" value="BERol" style="swimlane;fontStyle=1;align=center;verticalAlign=top;childLayout=stackLayout;horizontal=1;startSize=26;horizontalStack=0;resizeParent=1;resizeParentMax=0;resizeLast=0;collapsible=1;marginBottom=0;" parent="H-_01Mu2gKqrJwGbBytt-1" vertex="1">
          <mxGeometry x="1520" y="700" width="220" height="142" as="geometry" />
        </mxCell>
        <mxCell id="WYtthIlqHay8PLY1lMA2-58" value="+ Id: int" style="text;strokeColor=none;fillColor=none;align=left;verticalAlign=top;spacingLeft=4;spacingRight=4;overflow=hidden;rotatable=0;points=[[0,0.5],[1,0.5]];portConstraint=eastwest;" parent="WYtthIlqHay8PLY1lMA2-57" vertex="1">
          <mxGeometry y="26" width="220" height="30" as="geometry" />
        </mxCell>
        <mxCell id="WYtthIlqHay8PLY1lMA2-59" value="+ Nombre: string" style="text;strokeColor=none;fillColor=none;align=left;verticalAlign=top;spacingLeft=4;spacingRight=4;overflow=hidden;rotatable=0;points=[[0,0.5],[1,0.5]];portConstraint=eastwest;" parent="WYtthIlqHay8PLY1lMA2-57" vertex="1">
          <mxGeometry y="56" width="220" height="26" as="geometry" />
        </mxCell>
        <mxCell id="WYtthIlqHay8PLY1lMA2-60" value="+ Descripcion: string" style="text;strokeColor=none;fillColor=none;align=left;verticalAlign=top;spacingLeft=4;spacingRight=4;overflow=hidden;rotatable=0;points=[[0,0.5],[1,0.5]];portConstraint=eastwest;" parent="WYtthIlqHay8PLY1lMA2-57" vertex="1">
          <mxGeometry y="82" width="220" height="26" as="geometry" />
        </mxCell>
        <mxCell id="WYtthIlqHay8PLY1lMA2-61" value="+ Persmiso: BEPermiso_compuesto" style="text;strokeColor=none;fillColor=none;align=left;verticalAlign=top;spacingLeft=4;spacingRight=4;overflow=hidden;rotatable=0;points=[[0,0.5],[1,0.5]];portConstraint=eastwest;" parent="WYtthIlqHay8PLY1lMA2-57" vertex="1">
          <mxGeometry y="108" width="220" height="26" as="geometry" />
        </mxCell>
        <mxCell id="WYtthIlqHay8PLY1lMA2-62" value="" style="line;strokeWidth=1;fillColor=none;align=left;verticalAlign=middle;spacingTop=-1;spacingLeft=3;spacingRight=3;rotatable=0;labelPosition=right;points=[];portConstraint=eastwest;" parent="WYtthIlqHay8PLY1lMA2-57" vertex="1">
          <mxGeometry y="134" width="220" height="8" as="geometry" />
        </mxCell>
        <mxCell id="WYtthIlqHay8PLY1lMA2-77" value="1.1" style="text;html=1;align=center;verticalAlign=middle;resizable=0;points=[];autosize=1;" parent="H-_01Mu2gKqrJwGbBytt-1" vertex="1">
          <mxGeometry x="1880" y="550" width="30" height="20" as="geometry" />
        </mxCell>
        <mxCell id="jXJ1h0B2mP8WK_TSwUKt-9" style="edgeStyle=orthogonalEdgeStyle;rounded=0;orthogonalLoop=1;jettySize=auto;html=1;endArrow=none;endFill=0;" parent="H-_01Mu2gKqrJwGbBytt-1" source="jXJ1h0B2mP8WK_TSwUKt-0" target="jXJ1h0B2mP8WK_TSwUKt-8" edge="1">
          <mxGeometry relative="1" as="geometry" />
        </mxCell>
        <mxCell id="jXJ1h0B2mP8WK_TSwUKt-0" value="BEJerarquia" style="swimlane;fontStyle=1;align=center;verticalAlign=top;childLayout=stackLayout;horizontal=1;startSize=26;horizontalStack=0;resizeParent=1;resizeParentMax=0;resizeLast=0;collapsible=1;marginBottom=0;" parent="H-_01Mu2gKqrJwGbBytt-1" vertex="1">
          <mxGeometry x="830" y="748" width="160" height="86" as="geometry" />
        </mxCell>
        <mxCell id="jXJ1h0B2mP8WK_TSwUKt-2" value="+ Nombre: string" style="text;strokeColor=none;fillColor=none;align=left;verticalAlign=top;spacingLeft=4;spacingRight=4;overflow=hidden;rotatable=0;points=[[0,0.5],[1,0.5]];portConstraint=eastwest;" parent="jXJ1h0B2mP8WK_TSwUKt-0" vertex="1">
          <mxGeometry y="26" width="160" height="26" as="geometry" />
        </mxCell>
        <mxCell id="jXJ1h0B2mP8WK_TSwUKt-3" value="+ Abreviatura: string" style="text;strokeColor=none;fillColor=none;align=left;verticalAlign=top;spacingLeft=4;spacingRight=4;overflow=hidden;rotatable=0;points=[[0,0.5],[1,0.5]];portConstraint=eastwest;" parent="jXJ1h0B2mP8WK_TSwUKt-0" vertex="1">
          <mxGeometry y="52" width="160" height="26" as="geometry" />
        </mxCell>
        <mxCell id="jXJ1h0B2mP8WK_TSwUKt-6" value="" style="line;strokeWidth=1;fillColor=none;align=left;verticalAlign=middle;spacingTop=-1;spacingLeft=3;spacingRight=3;rotatable=0;labelPosition=right;points=[];portConstraint=eastwest;" parent="jXJ1h0B2mP8WK_TSwUKt-0" vertex="1">
          <mxGeometry y="78" width="160" height="8" as="geometry" />
        </mxCell>
        <mxCell id="jXJ1h0B2mP8WK_TSwUKt-10" value="1" style="text;html=1;align=center;verticalAlign=middle;resizable=0;points=[];autosize=1;" parent="H-_01Mu2gKqrJwGbBytt-1" vertex="1">
          <mxGeometry x="990" y="772" width="20" height="20" as="geometry" />
        </mxCell>
        <mxCell id="jXJ1h0B2mP8WK_TSwUKt-11" value="1.*" style="text;html=1;align=center;verticalAlign=middle;resizable=0;points=[];autosize=1;" parent="H-_01Mu2gKqrJwGbBytt-1" vertex="1">
          <mxGeometry x="1090" y="720" width="30" height="20" as="geometry" />
        </mxCell>
        <mxCell id="dQs4wgEXyiurEB1gUf8k-49" style="edgeStyle=orthogonalEdgeStyle;rounded=0;orthogonalLoop=1;jettySize=auto;html=1;endArrow=none;endFill=0;endSize=12;" parent="H-_01Mu2gKqrJwGbBytt-1" source="dQs4wgEXyiurEB1gUf8k-40" target="WYtthIlqHay8PLY1lMA2-74" edge="1">
          <mxGeometry relative="1" as="geometry">
            <mxPoint x="-259.9999999999998" y="810" as="targetPoint" />
            <Array as="points">
              <mxPoint x="-260" y="182" />
              <mxPoint x="-260" y="847" />
            </Array>
          </mxGeometry>
        </mxCell>
        <mxCell id="dQs4wgEXyiurEB1gUf8k-40" value="BEDestino" style="swimlane;fontStyle=1;align=center;verticalAlign=top;childLayout=stackLayout;horizontal=1;startSize=26;horizontalStack=0;resizeParent=1;resizeParentMax=0;resizeLast=0;collapsible=1;marginBottom=0;" parent="H-_01Mu2gKqrJwGbBytt-1" vertex="1">
          <mxGeometry x="-240" y="139" width="160" height="86" as="geometry" />
        </mxCell>
        <mxCell id="dQs4wgEXyiurEB1gUf8k-42" value="+ Nombre: string" style="text;strokeColor=none;fillColor=none;align=left;verticalAlign=top;spacingLeft=4;spacingRight=4;overflow=hidden;rotatable=0;points=[[0,0.5],[1,0.5]];portConstraint=eastwest;" parent="dQs4wgEXyiurEB1gUf8k-40" vertex="1">
          <mxGeometry y="26" width="160" height="26" as="geometry" />
        </mxCell>
        <mxCell id="dQs4wgEXyiurEB1gUf8k-43" value="+ Descripcion: string" style="text;strokeColor=none;fillColor=none;align=left;verticalAlign=top;spacingLeft=4;spacingRight=4;overflow=hidden;rotatable=0;points=[[0,0.5],[1,0.5]];portConstraint=eastwest;" parent="dQs4wgEXyiurEB1gUf8k-40" vertex="1">
          <mxGeometry y="52" width="160" height="26" as="geometry" />
        </mxCell>
        <mxCell id="dQs4wgEXyiurEB1gUf8k-44" value="" style="line;strokeWidth=1;fillColor=none;align=left;verticalAlign=middle;spacingTop=-1;spacingLeft=3;spacingRight=3;rotatable=0;labelPosition=right;points=[];portConstraint=eastwest;" parent="dQs4wgEXyiurEB1gUf8k-40" vertex="1">
          <mxGeometry y="78" width="160" height="8" as="geometry" />
        </mxCell>
        <mxCell id="dQs4wgEXyiurEB1gUf8k-46" style="edgeStyle=none;rounded=0;orthogonalLoop=1;jettySize=auto;html=1;endArrow=block;endFill=0;endSize=12;" parent="H-_01Mu2gKqrJwGbBytt-1" source="08A2mlQFigO-94BA-L4f-81" target="dQs4wgEXyiurEB1gUf8k-40" edge="1">
          <mxGeometry relative="1" as="geometry">
            <mxPoint x="-321.7864077669906" y="44" as="sourcePoint" />
            <mxPoint x="-291.2135922330099" y="138" as="targetPoint" />
          </mxGeometry>
        </mxCell>
        <mxCell id="dQs4wgEXyiurEB1gUf8k-50" value="1.*" style="text;html=1;align=center;verticalAlign=middle;resizable=0;points=[];autosize=1;" parent="H-_01Mu2gKqrJwGbBytt-1" vertex="1">
          <mxGeometry x="1085" y="820" width="30" height="20" as="geometry" />
        </mxCell>
        <mxCell id="dQs4wgEXyiurEB1gUf8k-52" value="1" style="text;html=1;align=center;verticalAlign=middle;resizable=0;points=[];autosize=1;" parent="H-_01Mu2gKqrJwGbBytt-1" vertex="1">
          <mxGeometry x="-280" y="190" width="20" height="20" as="geometry" />
        </mxCell>
        <mxCell id="fKPThavBtKHAHjjFwk2S-0" value="Backup" style="swimlane;fontStyle=1;align=center;verticalAlign=top;childLayout=stackLayout;horizontal=1;startSize=26;horizontalStack=0;resizeParent=1;resizeParentMax=0;resizeLast=0;collapsible=1;marginBottom=0;" parent="H-_01Mu2gKqrJwGbBytt-1" vertex="1">
          <mxGeometry x="-720" y="-451" width="190" height="86" as="geometry" />
        </mxCell>
        <mxCell id="fKPThavBtKHAHjjFwk2S-1" value="+ Fecha: datetime&#xa;Â " style="text;strokeColor=none;fillColor=none;align=left;verticalAlign=top;spacingLeft=4;spacingRight=4;overflow=hidden;rotatable=0;points=[[0,0.5],[1,0.5]];portConstraint=eastwest;" parent="fKPThavBtKHAHjjFwk2S-0" vertex="1">
          <mxGeometry y="26" width="190" height="26" as="geometry" />
        </mxCell>
        <mxCell id="fKPThavBtKHAHjjFwk2S-2" value="+ Nombre: string&#xa;Â " style="text;strokeColor=none;fillColor=none;align=left;verticalAlign=top;spacingLeft=4;spacingRight=4;overflow=hidden;rotatable=0;points=[[0,0.5],[1,0.5]];portConstraint=eastwest;" parent="fKPThavBtKHAHjjFwk2S-0" vertex="1">
          <mxGeometry y="52" width="190" height="26" as="geometry" />
        </mxCell>
        <mxCell id="fKPThavBtKHAHjjFwk2S-3" value="" style="line;strokeWidth=1;fillColor=none;align=left;verticalAlign=middle;spacingTop=-1;spacingLeft=3;spacingRight=3;rotatable=0;labelPosition=right;points=[];portConstraint=eastwest;" parent="fKPThavBtKHAHjjFwk2S-0" vertex="1">
          <mxGeometry y="78" width="190" height="8" as="geometry" />
        </mxCell>
      </root>
    </mxGraphModel>
  </diagram>
</mxfile>
